# xmcd
#
# Track frame offsets:
#	150
#	16386
#	31951
#	47043
#	62298
#	74339
#	91008
#	105789
#	123467
#	139564
#	153285
#	169430
#	188040
#	204502
#	220119
#	235357
#	246918
#	261897
#	279951
#
# Disc length: 3891 seconds
#
# Revision: 0
# Processed by: cddbd v1.5.2PL0 Copyright (c) Steve Scherf et al.
# Submitted via: audiograbber 1.83.01
#
DISCID=fe0f3113
DTITLE=Various Artist - Promo Only Country Radio August 2007 
DYEAR=2007
DGENRE=Country
TTITLE0=Blake Shelton - The More I Drink (Album Version) @
TTITLE1=Kenny Chesney - Never Wanted Nothing More
TTITLE2=Dierks Bentley - Free And Easy (Down The Road I Go)
TTITLE3=Crossin Dixon - Guitar Slinger
TTITLE4=Mark Chesnutt - That Good That Bad
TTITLE5=Reba McEntire Duet With Kelly Clarkson - Because Of You @
TTITLE6=Brooks and Dunn - Proud Of The House We Built
TTITLE7=Pat Green - Way Back Texas (Single Edit)
TTITLE8=Toby Keith - Love Me It You Can
TTITLE9=Hal Ketchum Feat. LeAnn Rimes - In Front Of The Alamo
TTITLE10=Patrick Gibson - Florida (Album Version)
TTITLE11=Faith Hill - Lost (Album Version)
TTITLE12=Flynnville Train - Nowhere Than Somewhere
TTITLE13=Sara Evans - As If
TTITLE14=Amy Dalley - Let's Try Goodbye
TTITLE15=Bobby Pinson - Past Comin' Back
TTITLE16=Lisa Shaffer - Just One
TTITLE17=Joanna Cotten - The Prize (Album Version)
TTITLE18=Mustang Creek - He'll Never Be A Lawyer ('Cause He Can't Pass The Bar)
EXTD=
EXTT0=
EXTT1=
EXTT2=
EXTT3=
EXTT4=
EXTT5=
EXTT6=
EXTT7=
EXTT8=
EXTT9=
EXTT10=
EXTT11=
EXTT12=
EXTT13=
EXTT14=
EXTT15=
EXTT16=
EXTT17=
EXTT18=
PLAYORDER=
